<svg width="220" height="56" viewBox="0 0 220 56" fill="none" xmlns="http://www.w3.org/2000/svg">
  <rect x="1" y="1" width="54" height="54" rx="18" fill="url(#paint0_linear)"/>
  <rect x="1" y="1" width="54" height="54" rx="18" stroke="url(#paint1_linear)" stroke-opacity="0.4"/>
  <rect x="18" y="18" width="20" height="20" rx="7" fill="white" fill-opacity="0.98"/>
  <rect x="14" y="14" width="28" height="28" rx="11" stroke="white" stroke-opacity="0.28" stroke-width="2"/>
  <path d="M73.664 36V19.92H77.056V36H73.664ZM89.9263 31.008H81.2383C81.3343 31.872 81.6783 32.552 82.2703 33.048C82.8783 33.528 83.6223 33.768 84.5023 33.768C85.7663 33.768 86.8303 33.336 87.6943 32.472L89.5183 34.56C88.9743 35.216 88.2863 35.712 87.4543 36.048C86.6383 36.384 85.7183 36.552 84.6943 36.552C83.3823 36.552 82.2303 36.296 81.2383 35.784C80.2463 35.256 79.4783 34.528 78.9343 33.6C78.4063 32.672 78.1423 31.616 78.1423 30.432C78.1423 29.264 78.3983 28.216 78.9103 27.288C79.4383 26.36 80.1583 25.64 81.0703 25.128C81.9983 24.6 83.0463 24.336 84.2143 24.336C85.3503 24.336 86.3663 24.584 87.2623 25.08C88.1743 25.576 88.8863 26.288 89.3983 27.216C89.9103 28.128 90.1663 29.208 90.1663 30.456C90.1663 30.504 90.1423 30.688 90.0943 31.008H89.9263ZM84.2143 26.904C83.4463 26.904 82.7983 27.144 82.2703 27.624C81.7583 28.104 81.4383 28.752 81.3103 29.568H86.9743C86.8623 28.768 86.5423 28.128 86.0143 27.648C85.4863 27.152 84.8863 26.904 84.2143 26.904ZM100.912 24.336C102.4 24.336 103.6 24.784 104.512 25.68C105.44 26.56 105.904 27.912 105.904 29.736V36H102.632V30.24C102.632 29.376 102.44 28.736 102.056 28.32C101.672 27.888 101.128 27.672 100.424 27.672C99.64 27.672 99.016 27.92 98.552 28.416C98.088 28.896 97.856 29.616 97.856 30.576V36H94.584V24.504H97.712V25.848C98.16 25.368 98.712 25 99.368 24.744C100.04 24.472 100.888 24.336 100.912 24.336ZM113.134 36.168C112.222 36.168 111.422 35.968 110.734 35.568C110.046 35.168 109.51 34.616 109.126 33.912C108.758 33.192 108.574 32.36 108.574 31.416V19.92H111.846V31.224C111.846 31.8 112.006 32.256 112.326 32.592C112.646 32.912 113.078 33.072 113.622 33.072C114.278 33.072 114.83 32.896 115.278 32.544L116.142 34.848C115.806 35.264 115.366 35.584 114.822 35.808C114.294 36.048 113.734 36.168 113.142 36.168H113.134ZM127.235 24.504V36H124.131V34.656C123.699 35.152 123.171 35.528 122.547 35.784C121.939 36.024 121.275 36.144 120.555 36.144C119.051 36.144 117.851 35.712 116.955 34.848C116.075 33.968 115.635 32.64 115.635 30.864V24.504H118.907V30.384C118.907 32.192 119.667 33.096 121.187 33.096C121.971 33.096 122.595 32.84 123.059 32.328C123.523 31.816 123.755 31.064 123.755 30.072V24.504H127.235ZM130.672 36V24.504H133.944V36H130.672ZM132.304 22.896C131.696 22.896 131.2 22.72 130.816 22.368C130.432 22.016 130.24 21.584 130.24 21.072C130.24 20.56 130.432 20.128 130.816 19.776C131.2 19.424 131.696 19.248 132.304 19.248C132.912 19.248 133.408 19.416 133.792 19.752C134.176 20.088 134.368 20.512 134.368 21.024C134.368 21.56 134.176 22.008 133.792 22.368C133.408 22.72 132.912 22.896 132.304 22.896ZM146.337 36L145.137 33.096H137.673L136.473 36H132.657L139.833 19.92H143.513L150.713 36H146.337ZM138.873 30.36H143.937L141.405 24.24L138.873 30.36ZM152.186 36V19.92H155.578V36H152.186Z" fill="#0F1728"/>
  <defs>
    <linearGradient id="paint0_linear" x1="28" y1="1" x2="28" y2="55" gradientUnits="userSpaceOnUse">
      <stop stop-color="#76A3FF"/>
      <stop offset="1" stop-color="#2F6FED"/>
    </linearGradient>
    <linearGradient id="paint1_linear" x1="28" y1="1" x2="28" y2="55" gradientUnits="userSpaceOnUse">
      <stop stop-color="white"/>
      <stop offset="1" stop-color="white" stop-opacity="0"/>
    </linearGradient>
  </defs>
</svg>
